# xmcd CD database file
#
# Track frame offsets:
#	150
#	18977
#	32753
#	48215
#	66524
#	86804
#	102419
#	116813
#	135380
#	153915
#	164676
#	177029
#	191550
#	204542
#	220290
#	237902
#	255049
#	268585
#	287323
#
# Disc length: 3997 seconds
#
# Revision: 0
# Processed by: cddbd v1.5.2PL0 Copyright (c) Steve Scherf et al.
# Submitted via: Feurio! 1.68 - http://www.feurio.com
#
DISCID=080f9b13
DTITLE=Various Artist - Griechischer Wein
DYEAR=1900
DGENRE=
TTITLE0=Udo Jürgens - Udo Jürgens: Griechischer Wein
TTITLE1=Nana Mouskouri - Nana Mouskouri: Weiße Rosen aus Athen
TTITLE2=Melina Mercouri - Melina Mercouri: Ein Schiff wird kommen
TTITLE3=Mikis Theoddorakis - Mikis Theoddorakis: Zorba`s Dance
TTITLE4=Vicki Leandros - Vicki Leandros: Ich hab' die Liebe geseh'n
TTITLE5=Vicki Leandros - Vicki Leandros: Die Bouzouki klang
TTITLE6=Vicki Leandros - Vicki Leandros: Ja, ja, der Peter
TTITLE7=Nana Mouskouri - Nana Mouskouri: Ximeroni
TTITLE8=Nana Mouskouri - Nana Mouskouri: Athina
TTITLE9=Nana Mouskouri - Nana Mouskouri: Ich schau den weißen Wolken nach
TTITLE10=Nana Mouskouri - Nana Mouskouri: The White Rose Of Athens
TTITLE11=Nana Mouskouri - Nana Mouskouri: To pedia tou Pirea
TTITLE12=Nana Mouskouri - Nana Mouskouri: Milise mou
TTITLE13=Xatzidakis Manos - Xatzidakis Manos: Milise Mou
TTITLE14=Agnes Baltsa - Agnes Baltsa: Aspri mera ke ya mas
TTITLE15=traditonal - traditonal: Syrtaki
TTITLE16=Gypsie Kings - Gypsie Kings: Zorba The Greek (sirtaki)
TTITLE17=instrumental - instrumental: Sirtaki
TTITLE18=Rex Gildo - Rex Gildo: Der letzte Sirtaki
EXTD=
EXTT0=
EXTT1=
EXTT2=
EXTT3=
EXTT4=
EXTT5=
EXTT6=
EXTT7=
EXTT8=
EXTT9=
EXTT10=
EXTT11=
EXTT12=
EXTT13=
EXTT14=
EXTT15=
EXTT16=
EXTT17=
EXTT18=
PLAYORDER=
